<svg width="36" height="35" viewBox="0 0 36 35" fill="none" xmlns="http://www.w3.org/2000/svg">
<path d="M12.15 0C12.3985 0 12.6 0.201472 12.6 0.45V3.6H23.4V0.45C23.4 0.201472 23.6015 0 23.85 0H26.55C26.7985 0 27 0.201472 27 0.45V3.6H30.6C33.5823 3.6 36 6.01766 36 9V28.8C36 31.7823 33.5823 34.2 30.6 34.2H5.4C2.41766 34.2 0 31.7823 0 28.8V9C0 6.01766 2.41766 3.6 5.4 3.6H9V0.45C9 0.201472 9.20147 0 9.45 0H12.15ZM23.4 7.2H12.6V10.35C12.6 10.5985 12.3985 10.8 12.15 10.8H9.45C9.20147 10.8 9 10.5985 9 10.35V7.2H5.4C4.40589 7.2 3.6 8.00589 3.6 9V13.5H32.4V9C32.4 8.00589 31.5941 7.2 30.6 7.2H27V10.35C27 10.5985 26.7985 10.8 26.55 10.8H23.85C23.6015 10.8 23.4 10.5985 23.4 10.35V7.2ZM3.6 17.1V28.8C3.6 29.7941 4.40589 30.6 5.4 30.6H30.6C31.5941 30.6 32.4 29.7941 32.4 28.8V17.1H3.6Z" fill="black"/>
</svg>
