<svg width="20" height="24" viewBox="0 0 20 24" fill="none" xmlns="http://www.w3.org/2000/svg">
<path d="M10 2.10527C5.63059 2.10527 2.10527 5.6119 2.10527 9.91692C2.10527 10.8675 2.52331 12.0483 3.28279 13.3589C4.03029 14.6489 5.0474 15.961 6.10299 17.1472C7.15587 18.3304 8.22592 19.3648 9.06094 20.0986C9.43657 20.4287 9.75661 20.6909 10 20.8755C10.2434 20.6909 10.5635 20.4287 10.9391 20.0986C11.7741 19.3648 12.8442 18.3304 13.897 17.1472C14.9526 15.961 15.9698 14.6489 16.7172 13.3589C17.4767 12.0483 17.8948 10.8675 17.8948 9.91692C17.8948 5.6119 14.3695 2.10527 10 2.10527ZM0 9.91692C0 4.43072 4.48644 0 10 0C15.5136 0 20 4.43072 20 9.91692C20 11.4142 19.3696 12.9808 18.5388 14.4145C17.696 15.8688 16.5811 17.2978 15.4698 18.5467C14.3557 19.7987 13.2239 20.8934 12.3288 21.68C11.8824 22.0724 11.4848 22.3968 11.1705 22.629C11.0154 22.7436 10.8647 22.8476 10.7293 22.9278C10.6627 22.9672 10.5811 23.0122 10.4925 23.0505L10.4916 23.0509C10.4354 23.0752 10.2439 23.1579 10 23.1579C9.75612 23.1579 9.56461 23.0752 9.50841 23.0509L9.50753 23.0505C9.41891 23.0122 9.33731 22.9672 9.27076 22.9278C9.13538 22.8476 8.98465 22.7436 8.82955 22.629C8.51519 22.3968 8.11767 22.0724 7.67121 21.68C6.77617 20.8934 5.64432 19.7987 4.53025 18.5467C3.4189 17.2978 2.30402 15.8688 1.46126 14.4145C0.630474 12.9808 0 11.4142 0 9.91692ZM10 7.09143C8.71903 7.09143 7.69738 8.11764 7.69738 9.3629C7.69738 10.6082 8.71903 11.6344 10 11.6344C11.281 11.6344 12.3027 10.6082 12.3027 9.3629C12.3027 8.11764 11.281 7.09143 10 7.09143ZM5.59212 9.3629C5.59212 6.93645 7.57488 4.98616 10 4.98616C12.4252 4.98616 14.4079 6.93645 14.4079 9.3629C14.4079 11.7893 12.4252 13.7396 10 13.7396C7.57488 13.7396 5.59212 11.7893 5.59212 9.3629Z" fill="black" fill-opacity="0.5"/>
</svg>
