<svg width="51" height="40" viewBox="0 0 51 40" fill="none" xmlns="http://www.w3.org/2000/svg">
<path d="M6.61074 36.6024C5.43459 36.6024 4.52207 36.2982 3.91372 35.6696C3.30537 35.041 2.98092 34.1284 2.98092 32.932V6.65129C2.98092 5.43459 3.28509 4.52207 3.91372 3.91372C4.54235 3.30537 5.43459 2.98092 6.61074 2.98092H44.3893C45.5451 2.98092 46.4374 3.28509 47.066 3.91372C47.6946 4.52207 47.9988 5.45487 47.9988 6.65129V32.932C47.9988 34.1487 47.6946 35.0612 47.066 35.6696C46.4374 36.2779 45.5451 36.6024 44.3893 36.6024H6.61074ZM6.5499 39.5833H44.4501C46.6199 39.5833 48.2624 39.0358 49.3575 37.9408C50.4525 36.8457 51 35.2437 51 33.0942V6.48907C51 4.33956 50.4525 2.7173 49.3575 1.64255C48.2624 0.567793 46.6199 0 44.4501 0H6.5499C4.38012 0 2.75785 0.547515 1.64255 1.64255C0.547515 2.73758 0 4.35984 0 6.50935V33.1145C0 35.264 0.547515 36.8863 1.64255 37.961C2.73758 39.0358 4.38012 39.5833 6.5499 39.5833ZM16.0604 8.90219H34.9396C35.3249 8.90219 35.629 8.78052 35.8724 8.53718C36.1157 8.29384 36.2374 7.98966 36.2374 7.60438C36.2374 7.21909 36.1157 6.93519 35.8724 6.67157C35.629 6.42823 35.3249 6.30656 34.9396 6.30656H16.0604C15.6954 6.30656 15.3913 6.42823 15.1479 6.67157C14.9046 6.91491 14.7829 7.21909 14.7829 7.60438C14.7829 7.98966 14.9046 8.27356 15.1479 8.53718C15.3913 8.78052 15.6954 8.90219 16.0604 8.90219Z" fill="#007AFF"/>
</svg>
