<svg width="40" height="37" viewBox="0 0 40 37" fill="none" xmlns="http://www.w3.org/2000/svg">
<path d="M20 3.82604C24.7595 -1.19717 31.9358 -1.20352 36.5019 3.39123C41.166 8.08466 41.166 15.6893 36.5019 20.3827L21.3511 35.6287C20.9935 35.9884 20.5072 36.1908 20 36.1908C19.4928 36.1908 19.0065 35.9884 18.6489 35.6287L3.49811 20.3827C-1.16604 15.6893 -1.16604 8.08466 3.49811 3.39123C8.0642 -1.20352 15.2405 -1.19717 20 3.82604ZM33.7997 6.07653C30.6833 2.94055 25.7286 2.92596 22.3869 6.86865L22.3381 6.92621L20 9.27899L17.6619 6.92621L17.6131 6.86865C14.2714 2.92596 9.31669 2.94055 6.20027 6.07653C3.01261 9.2842 3.01261 14.4898 6.20027 17.6974L20 31.5838L33.7997 17.6974C36.9874 14.4898 36.9874 9.2842 33.7997 6.07653Z" fill="black"/>
</svg>
