<svg width="40" height="36" viewBox="0 0 40 36" fill="none" xmlns="http://www.w3.org/2000/svg">
<path fill-rule="evenodd" clip-rule="evenodd" d="M18.919 0.386387C19.5473 -0.128788 20.452 -0.128796 21.0803 0.386368L39.3761 15.386C39.933 15.8426 40.1429 16.5999 39.9004 17.278C39.658 17.9561 39.0155 18.4087 38.2954 18.4087H35.6466L34.292 33.2127C34.1582 34.6753 32.9316 35.7947 31.463 35.7947H8.53771C7.06905 35.7947 5.8425 34.6753 5.70868 33.2127L4.35406 18.4087H1.7046C0.984469 18.4087 0.342034 17.9561 0.0995919 17.278C-0.14285 16.5999 0.0670153 15.8426 0.623904 15.3861L18.919 0.386387ZM19.9997 3.90865L6.47199 14.9997H7.46538L9.05626 32.3857H16.0225V25.9243C16.0225 22.5152 18.8039 22.5152 19.4315 22.5152H20.5678C21.1954 22.5152 23.9769 22.5152 23.9769 25.9243V32.3857H30.9444L32.5353 14.9997H33.5279L19.9997 3.90865Z" fill="black"/>
</svg>
