<svg width="24" height="22" viewBox="0 0 24 22" fill="none" xmlns="http://www.w3.org/2000/svg">
<path fill-rule="evenodd" clip-rule="evenodd" d="M11.5107 0C12.38 0 13.1497 0.561465 13.4151 1.38918L15.2147 7H21.0213C21.8915 7 22.6618 7.56265 22.9265 8.39159C23.1912 9.22053 22.8895 10.1255 22.1804 10.6298L17.5246 13.9411L19.4003 19.3441C19.6844 20.1627 19.4092 21.0712 18.7184 21.5943C18.0277 22.1175 17.0786 22.1363 16.3676 21.641L11.5107 18.2572L6.65422 21.641C5.94326 22.1363 4.99419 22.1175 4.30342 21.5944C3.61265 21.0712 3.33733 20.1628 3.62147 19.3442L5.49688 13.9411L0.840995 10.6298C0.131867 10.1255 -0.169785 9.22053 0.0949273 8.39159C0.35964 7.56265 1.12996 7 2.00014 7H7.80668L9.60626 1.38918C9.87174 0.561465 10.6415 0 11.5107 0ZM9.26557 9H5.45096H2.00014L4.81228 11L7.87799 13.1803L6.62686 16.7849L5.51088 20L8.30324 18.0544L11.5107 15.8197L14.7184 18.0545L17.5109 20L16.3947 16.7848L15.1434 13.1803L18.2091 11L21.0213 9H17.5705H13.7558L12.5609 5.27429L11.5107 2L10.4605 5.27429L9.26557 9Z" fill="black" fill-opacity="0.5"/>
</svg>
